<svg width="470" height="86" viewBox="0 0 470 86" fill="none" xmlns="http://www.w3.org/2000/svg">
<path d="M0 42.3433C0 21.5043 13.3351 7.61166 33.4818 7.61166C39.9095 7.61166 46.1453 9.60992 51.0381 13.7016C51.5178 14.1774 51.9015 14.9386 52.0934 15.6047L52.7649 15.4144C52.5731 14.6531 52.4771 13.7016 52.4771 12.6549L52.2853 5.80371L53.1487 5.70856L54.0121 33.2084L52.2853 33.3036L51.9975 24.4541C51.5178 15.8902 42.212 9.2293 32.7143 9.2293C16.9807 9.2293 8.53833 20.3625 8.53833 40.8208C8.53833 63.6581 17.3645 75.838 33.7696 75.838C42.8835 75.838 51.7096 70.8899 55.0674 62.8969L56.6983 63.4678C52.8609 72.9833 43.651 77.5508 33.5777 77.5508C13.4311 77.5508 0 63.4678 0 42.3433Z" fill="white"/>
<path d="M56.9951 76.7895V75.9331H58.5301C60.9285 75.9331 62.3676 73.2688 63.8066 70.0335L90.6688 8.3729H98.1518V9.51477C98.1518 11.4179 98.5355 13.8919 99.0152 15.0338L121.656 70.0335C123.575 74.601 123.863 75.9331 127.316 75.9331H128.084V76.7895H109.76V75.9331H117.147V75.7428C115.804 75.267 114.845 72.8882 114.173 71.2705L108.801 58.2343H70.81L65.6294 70.0335C65.2457 70.8899 65.0538 71.556 65.0538 72.2221C65.0538 74.5058 66.8766 75.9331 69.7547 75.9331H74.4555V76.7895H56.9951ZM71.4815 56.5215H108.033L91.82 16.8417C91.1484 15.3192 91.0525 14.0822 91.0525 13.0355H90.1891C90.1891 13.6064 89.9013 14.8435 89.0378 16.8417L71.4815 56.5215Z" fill="white"/>
<path d="M129.793 76.7895V75.9331H131.328C136.22 75.9331 136.988 74.5058 137.276 69.1771L139.866 14.2725C139.866 13.6064 139.866 12.9404 139.866 12.2743C139.866 10.1809 139.29 9.2293 135.165 9.2293H131.328V8.3729H145.43L170.278 62.8969C171.141 64.8 171.717 66.4176 171.717 66.9885H172.197C172.197 66.4176 172.868 64.3242 173.54 62.8969L198.387 8.3729H212.778V9.2293H209.516C204.815 9.2293 204.143 10.6566 204.143 13.4161C204.143 14.1774 204.143 15.0338 204.239 15.9853L206.446 69.1771C206.638 74.601 207.309 75.9331 212.586 75.9331H214.696V76.7895H189.657V75.9331H193.111C198.291 75.9331 198.963 74.601 198.963 72.3172C198.963 71.8415 198.963 71.2705 198.963 70.6044L197.044 20.4576C196.948 18.7448 196.948 17.3175 196.948 16.2708H196.373C196.373 16.5563 195.701 18.1739 194.838 20.1722L169.031 77.1702L168.743 77.8362H168.551L168.263 77.1702L142.84 21.2189C141.977 19.3158 141.785 17.5078 141.785 17.2223H141.401C141.401 18.0787 141.401 18.7448 141.305 20.4576L138.907 70.4141C138.811 71.2705 138.715 72.0318 138.715 72.6027C138.715 74.8864 139.578 75.9331 144.855 75.9331H148.308V76.7895H129.793Z" fill="white"/>
<path d="M307.686 75.0767H318.623C330.519 75.0767 338.482 67.8449 338.482 56.9972C338.482 45.5786 329.944 37.3953 318.047 37.3953H312.963V35.7776H316.8C325.243 35.7776 331.383 30.4489 331.383 22.9317C331.383 15.2241 324.955 10.0857 315.457 10.0857H307.686V10.1809C308.838 11.3227 309.317 12.9404 309.317 15.1289V70.0335C309.317 72.2221 308.838 73.7446 307.686 74.8864V75.0767ZM293.392 76.7895V75.838H296.75C301.355 75.838 301.834 75.3622 301.834 70.7947V14.2725C301.834 9.70508 301.355 9.2293 296.75 9.2293H293.392V8.3729H316.8C330.423 8.3729 339.537 14.1774 339.537 22.7413C339.537 28.1652 334.548 34.8261 325.722 36.0631V36.4437C338.194 37.3001 346.828 47.2914 346.828 56.9972C346.828 68.8916 335.22 76.7895 320.35 76.7895H293.392Z" fill="white"/>
<path d="M348.083 76.7895V75.9331H349.618C352.016 75.9331 353.455 73.2688 354.894 70.0335L381.757 8.3729H389.24V9.51477C389.24 11.4179 389.623 13.8919 390.103 15.0338L412.744 70.0335C414.663 74.601 414.951 75.9331 418.404 75.9331H419.172V76.7895H400.848V75.9331H408.235V75.7428C406.892 75.267 405.933 72.8882 405.261 71.2705L399.889 58.2343H361.898L356.717 70.0335C356.333 70.8899 356.142 71.556 356.142 72.2221C356.142 74.5058 357.964 75.9331 360.842 75.9331H365.543V76.7895H348.083ZM362.569 56.5215H399.121L382.908 16.8417C382.236 15.3192 382.14 14.0822 382.14 13.0355H381.277C381.277 13.6064 380.989 14.8435 380.126 16.8417L362.569 56.5215Z" fill="white"/>
<path d="M436.039 10.1809V10.6566C437.19 12.1791 437.669 14.3677 437.669 16.5563V48.4333H443.042C455.13 48.4333 461.654 41.7724 461.654 29.3071C461.654 16.9369 455.13 10.1809 443.042 10.1809H436.039ZM421.744 76.7895V75.9331H425.102C429.707 75.9331 430.186 75.4574 430.186 70.8899V14.2725C430.186 9.70508 429.707 9.2293 425.102 9.2293H421.744V8.3729H445.92C460.31 8.3729 470 16.7466 470 29.3071C470 41.8675 460.31 50.1461 445.92 50.1461H437.669V70.8899C437.669 75.4574 438.245 75.9331 442.85 75.9331H445.248V76.7895H421.744Z" fill="white"/>
<path d="M244.661 76.7989C223.998 71.2985 213.941 54.1382 219.436 33.8277C224.907 13.6091 242.276 3.74989 262.939 9.25035C283.416 14.7015 293.474 31.8617 288.003 52.0803C282.507 72.3909 265.138 82.2501 244.661 76.7989ZM245.386 75.2187C262.157 79.6832 274.097 71.5316 279.469 51.6806C285.412 29.7158 279.262 15.3691 262.121 10.8059C245.257 6.31677 233.292 14.5603 227.945 34.3194C221.977 56.3761 228.059 70.6062 245.386 75.2187Z" fill="white"/>
</svg>
