<svg width="180" height="33" viewBox="0 0 180 33" fill="none" xmlns="http://www.w3.org/2000/svg">
<path d="M0 16.2465C0 8.23159 5.10708 2.88832 12.8228 2.88832C15.2845 2.88832 17.6727 3.65688 19.5465 5.23058C19.7302 5.41356 19.8772 5.70635 19.9507 5.96253L20.2079 5.88933C20.1344 5.59655 20.0976 5.23058 20.0976 4.828L20.0241 2.19297L20.3548 2.15637L20.6855 12.7331L20.0241 12.7697L19.9139 9.36611C19.7302 6.07232 16.1663 3.51049 12.5289 3.51049C6.50325 3.51049 3.27 7.79241 3.27 15.6609C3.27 24.4444 6.65022 29.1289 12.933 29.1289C16.4235 29.1289 19.8037 27.2258 21.0896 24.1516L21.7143 24.3712C20.2446 28.0309 16.7174 29.7876 12.8595 29.7876C5.14382 29.7876 0 24.3712 0 16.2465Z" fill="white"/>
<path d="M21.8279 29.4948V29.1655H22.4158C23.3343 29.1655 23.8855 28.1407 24.4366 26.8964L34.7242 3.18111H37.59V3.62028C37.59 4.35223 37.737 5.30377 37.9207 5.74294L46.5917 26.8964C47.3266 28.6531 47.4368 29.1655 48.7595 29.1655H49.0534V29.4948H42.0358V29.1655H44.8649V29.0923C44.3505 28.9093 43.9831 27.9943 43.7259 27.3722L41.6684 22.3583H27.1187L25.1347 26.8964C24.9877 27.2258 24.9142 27.482 24.9142 27.7381C24.9142 28.6165 25.6123 29.1655 26.7146 29.1655H28.5149V29.4948H21.8279ZM27.3759 21.6995H41.3744L35.1651 6.4383C34.9079 5.85274 34.8712 5.37697 34.8712 4.97439H34.5405C34.5405 5.19398 34.4303 5.66975 34.0996 6.4383L27.3759 21.6995Z" fill="white"/>
<path d="M49.7079 29.4948V29.1655H50.2957C52.1696 29.1655 52.4635 28.6165 52.5737 26.567L53.5657 5.45016C53.5657 5.19398 53.5657 4.9378 53.5657 4.68161C53.5657 3.87646 53.3453 3.51049 51.7654 3.51049H50.2957V3.18111H55.6967L65.2128 24.1516C65.5435 24.8835 65.7639 25.5057 65.7639 25.7253H65.9476C65.9476 25.5057 66.2048 24.7005 66.462 24.1516L75.9781 3.18111H81.4893V3.51049H80.2401C78.4398 3.51049 78.1826 4.05945 78.1826 5.12078C78.1826 5.41356 78.1826 5.74294 78.2193 6.10892L79.0644 26.567C79.1378 28.6531 79.395 29.1655 81.4158 29.1655H82.2241V29.4948H72.6346V29.1655H73.9573C75.9413 29.1655 76.1985 28.6531 76.1985 27.7747C76.1985 27.5918 76.1985 27.3722 76.1985 27.116L75.4637 7.82901C75.427 7.17025 75.4269 6.62129 75.4269 6.21871H75.2065C75.2065 6.32851 74.9493 6.95067 74.6186 7.71922L64.7352 29.6412L64.6249 29.8974H64.5515L64.4412 29.6412L54.7047 8.12179C54.374 7.38984 54.3006 6.69448 54.3006 6.58469H54.1536C54.1536 6.91407 54.1536 7.17025 54.1169 7.82901L53.1983 27.0428C53.1616 27.3722 53.1248 27.6649 53.1248 27.8845C53.1248 28.7629 53.4555 29.1655 55.4763 29.1655H56.799V29.4948H49.7079Z" fill="white"/>
<path d="M117.837 28.8361H122.026C126.582 28.8361 129.631 26.0547 129.631 21.8825C129.631 17.4908 126.361 14.3434 121.805 14.3434H119.858V13.7212H121.328C124.561 13.7212 126.912 11.6718 126.912 8.78055C126.912 5.81614 124.451 3.83986 120.813 3.83986H117.837V3.87646C118.278 4.31563 118.462 4.9378 118.462 5.77954V26.8964C118.462 27.7381 118.278 28.3237 117.837 28.7629V28.8361ZM112.363 29.4948V29.1289H113.649C115.412 29.1289 115.596 28.9459 115.596 27.1892V5.45016C115.596 3.69347 115.412 3.51049 113.649 3.51049H112.363V3.18111H121.328C126.545 3.18111 130.036 5.41356 130.036 8.70736C130.036 10.7934 128.125 13.3553 124.745 13.831V13.9774C129.521 14.3068 132.828 18.1496 132.828 21.8825C132.828 26.4572 128.382 29.4948 122.687 29.4948H112.363Z" fill="white"/>
<path d="M133.308 29.4948V29.1655H133.896C134.815 29.1655 135.366 28.1407 135.917 26.8964L146.205 3.18111H149.071V3.62028C149.071 4.35223 149.217 5.30377 149.401 5.74294L158.072 26.8964C158.807 28.6531 158.917 29.1655 160.24 29.1655H160.534V29.4948H153.516V29.1655H156.345V29.0923C155.831 28.9093 155.464 27.9943 155.206 27.3722L153.149 22.3583H138.599L136.615 26.8964C136.468 27.2258 136.395 27.482 136.395 27.7381C136.395 28.6165 137.093 29.1655 138.195 29.1655H139.995V29.4948H133.308ZM138.856 21.6995H152.855L146.646 6.4383C146.388 5.85274 146.352 5.37697 146.352 4.97439H146.021C146.021 5.19398 145.911 5.66975 145.58 6.4383L138.856 21.6995Z" fill="white"/>
<path d="M166.993 3.87646V4.05945C167.434 4.64501 167.618 5.48676 167.618 6.32851V18.5887H169.676C174.305 18.5887 176.803 16.0269 176.803 11.2326C176.803 6.4749 174.305 3.87646 169.676 3.87646H166.993ZM161.519 29.4948V29.1655H162.805C164.569 29.1655 164.752 28.9825 164.752 27.2258V5.45016C164.752 3.69347 164.569 3.51049 162.805 3.51049H161.519V3.18111H170.778C176.289 3.18111 180 6.4017 180 11.2326C180 16.0635 176.289 19.2475 170.778 19.2475H167.618V27.2258C167.618 28.9825 167.839 29.1655 169.602 29.1655H170.521V29.4948H161.519Z" fill="white"/>
<path d="M93.7014 29.4994C85.7881 27.3839 81.9363 20.7839 84.0411 12.9723C86.1364 5.19597 92.7883 1.40403 100.702 3.51956C108.544 5.61611 112.396 12.2161 110.3 19.9924C108.196 27.804 101.544 31.596 93.7014 29.4994ZM93.9793 28.8916C100.402 30.6087 104.975 27.4735 107.032 19.8386C109.309 11.3908 106.953 5.87289 100.388 4.11785C93.9298 2.39128 89.3474 5.5618 87.2998 13.1614C85.014 21.6446 87.3435 27.1176 93.9793 28.8916Z" fill="#F57202"/>
</svg>
